<svg viewBox="0 0 50 38"  xmlns="http://www.w3.org/2000/svg">
<path d="M15.4692 0.000178138C15.2502 0.000178138 15.0192 0.086178 14.8442 0.219178L4.40616 8.21918C4.39116 8.23018 4.35916 8.23918 4.34416 8.25018L4.31216 8.28118C4.29316 8.30118 4.26616 8.32418 4.25016 8.34418C4.21016 8.39118 4.18716 8.44918 4.15616 8.50018C4.14516 8.52018 4.10616 8.54318 4.09416 8.56318L0.0941579 16.5632C-0.0978421 16.9492 -0.0228421 17.4142 0.281158 17.7192C0.473158 17.9102 0.742158 18.0002 1.00016 18.0002C1.15156 18.0042 1.30174 17.972 1.43816 17.9062L4.00016 16.6252V37.0002C4.00016 37.2654 4.10551 37.5198 4.29305 37.7073C4.48059 37.8948 4.73494 38.0002 5.00016 38.0002H35.0002C35.1408 37.9996 35.2796 37.9675 35.4062 37.9062C35.4412 37.8912 35.4692 37.8632 35.5002 37.8442C35.5902 37.7892 35.6842 37.7342 35.7502 37.6562L35.7812 37.6252L43.7812 27.6252C43.9212 27.4452 44.0002 27.2272 44.0002 27.0002V20.2812L41.0942 23.3132C41.0019 23.4114 40.8905 23.4897 40.7668 23.5434C40.6432 23.597 40.5099 23.6249 40.3752 23.6252C40.3402 23.6252 40.2852 23.6292 40.2502 23.6252C40.0952 23.6048 39.947 23.5491 39.817 23.4624C39.687 23.3757 39.5786 23.2604 39.5002 23.1252L34.0002 13.9062V36.0002H6.00016V10.0002H34.0002L40.5312 20.9692L49.7192 11.7192C50.0432 11.3952 50.0822 10.8952 49.8442 10.5002L43.8442 0.500178C43.8362 0.484178 43.8242 0.453178 43.8122 0.437178C43.7856 0.392379 43.7544 0.350484 43.7192 0.312178C43.7112 0.305178 43.7272 0.289178 43.7192 0.282178C43.7032 0.266178 43.6722 0.266178 43.6562 0.250178C43.6212 0.219178 43.6022 0.184178 43.5632 0.156178C43.5552 0.152178 43.5392 0.160178 43.5312 0.156178C43.5002 0.136178 43.4692 0.109178 43.4382 0.094178C43.4062 0.078178 43.3752 0.0741779 43.3442 0.0621779C43.2892 0.0431779 43.2462 0.0431782 43.1872 0.0321782C43.1682 0.0271782 43.1452 0.00417814 43.1252 0.000178138C43.1092 -0.00382186 43.0782 0.00417814 43.0622 0.000178138H43.0002H15.4692ZM15.8132 2.00018H40.5932L34.5932 8.00018H7.97016L15.8132 2.00018Z" />
<path d="M24.3486 20.3311L24.2959 20.3223L20.8682 29.7969H19.1455L15.7354 20.3574L15.6826 20.3662L15.9287 25.9824V27.9951L17.2998 28.2588V29.7969H12V28.2588L13.3623 27.9951V18.8105L12 18.5469V17H13.3623H16.7109L19.9717 26.4307H20.0244L23.3115 17H28.04V18.5469L26.6689 18.8105V27.9951L28.04 28.2588V29.7969H22.7402V28.2588L24.1025 27.9951V25.9824L24.3486 20.3311Z" />
</svg>
