<svg  viewBox="0 0 50 50" fill="currentColor" xmlns="http://www.w3.org/2000/svg">
<g clip-path="url(#clip0)">
<path d="M15.4687 6.00018C15.2497 6.00018 15.0187 6.08618 14.8437 6.21918L4.40567 14.2192C4.39067 14.2302 4.35867 14.2392 4.34367 14.2502L4.31167 14.2812C4.29267 14.3012 4.26567 14.3242 4.24967 14.3442C4.20967 14.3912 4.18667 14.4492 4.15567 14.5002C4.14467 14.5202 4.10567 14.5432 4.09367 14.5632L0.0936696 22.5632C-0.0983304 22.9492 -0.0233304 23.4142 0.28067 23.7192C0.47267 23.9102 0.74167 24.0002 0.99967 24.0002C1.15108 24.0042 1.30125 23.972 1.43767 23.9062L3.99967 22.6252V43.0002C3.99967 43.2654 4.10503 43.5198 4.29256 43.7073C4.4801 43.8948 4.73445 44.0002 4.99967 44.0002H34.9997C35.1403 43.9996 35.2791 43.9675 35.4057 43.9062C35.4407 43.8912 35.4687 43.8632 35.4997 43.8442C35.5897 43.7892 35.6837 43.7342 35.7497 43.6562L35.7807 43.6252L43.7807 33.6252C43.9207 33.4452 43.9997 33.2272 43.9997 33.0002V26.2812L41.0937 29.3132C41.0014 29.4114 40.89 29.4897 40.7664 29.5434C40.6427 29.597 40.5094 29.6249 40.3747 29.6252C40.3397 29.6252 40.2847 29.6292 40.2497 29.6252C40.0947 29.6048 39.9465 29.5491 39.8165 29.4624C39.6865 29.3757 39.5781 29.2604 39.4997 29.1252L33.9997 19.9062V42.0002H5.99967V16.0002H33.9997L40.5307 26.9692L49.7187 17.7192C50.0427 17.3952 50.0817 16.8952 49.8437 16.5002L43.8437 6.50018C43.8357 6.48418 43.8237 6.45318 43.8117 6.43718C43.7851 6.39238 43.7539 6.35048 43.7187 6.31218C43.7107 6.30518 43.7267 6.28918 43.7187 6.28218C43.7027 6.26618 43.6717 6.26618 43.6557 6.25018C43.6207 6.21918 43.6017 6.18418 43.5627 6.15618C43.5547 6.15218 43.5387 6.16018 43.5307 6.15618C43.4997 6.13618 43.4687 6.10918 43.4377 6.09418C43.4057 6.07818 43.3747 6.07418 43.3437 6.06218C43.2887 6.04318 43.2457 6.04318 43.1867 6.03218C43.1677 6.02718 43.1447 6.00418 43.1247 6.00018C43.1087 5.99618 43.0777 6.00418 43.0617 6.00018H42.9997H15.4687ZM15.8127 8.00018H40.5927L34.5927 14.0002H7.96967L15.8127 8.00018Z" />
<path d="M24.3486 26.3311L24.2959 26.3223L20.8682 35.7969H19.1455L15.7354 26.3574L15.6826 26.3662L15.9287 31.9824V33.9951L17.2998 34.2588V35.7969H12V34.2588L13.3623 33.9951V24.8105L12 24.5469V23H13.3623H16.7109L19.9717 32.4307H20.0244L23.3115 23H28.04V24.5469L26.6689 24.8105V33.9951L28.04 34.2588V35.7969H22.7402V34.2588L24.1025 33.9951V31.9824L24.3486 26.3311Z"/>
</g>
<defs>
<clipPath id="clip0">
<rect width="50" height="50"/>
</clipPath>
</defs>
</svg>

